<?xml version="1.0" encoding="UTF-8" standalone="no"?>
<!DOCTYPE svg PUBLIC "-//W3C//DTD SVG 1.1//EN" "http://www.w3.org/Graphics/SVG/1.1/DTD/svg11.dtd">
<!-- Created with Vectornator (http://vectornator.io/) -->
<svg height="12.0pt" stroke-miterlimit="10" style="fill-rule:nonzero;clip-rule:evenodd;stroke-linecap:round;stroke-linejoin:round;" version="1.1" viewBox="0 0 9 12" width="9.0pt" xml:space="preserve" xmlns="http://www.w3.org/2000/svg" xmlns:vectornator="http://vectornator.io" xmlns:xlink="http://www.w3.org/1999/xlink">
<defs>
<linearGradient gradientTransform="matrix(7.34788e-16 12 -12 7.34788e-16 6 0)" gradientUnits="userSpaceOnUse" id="LinearGradient" x1="0" x2="1" y1="0" y2="0">
<stop offset="0" stop-color="#f29040"/>
<stop offset="0.7482" stop-color="#ee693c"/>
<stop offset="1" stop-color="#cd3a27"/>
</linearGradient>
</defs>
<clipPath id="ArtboardFrame">
<rect height="12" width="9" x="0" y="0"/>
</clipPath>
<g clip-path="url(#ArtboardFrame)" id="Untitled" vectornator:layerName="Untitled">
<clipPath clip-rule="nonzero" id="ClipPath">
<path d="M4.5 12C2.01562 12 0 9.98438 0 7.5C0 5.3625 3.05156 1.35234 3.90469 0.274219C4.04531 0.0984375 4.25391 0 4.47891 0L4.52109 0C4.74609 0 4.95469 0.0984375 5.09531 0.274219C5.94844 1.35234 9 5.3625 9 7.5C9 9.98438 6.98438 12 4.5 12ZM6.26484 5.73516C6.11953 5.58984 5.88047 5.58984 5.73516 5.73516L2.73516 8.73516C2.58984 8.88047 2.58984 9.11953 2.73516 9.26484C2.88047 9.41016 3.11953 9.41016 3.26484 9.26484L6.26484 6.26484C6.41016 6.11953 6.41016 5.88047 6.26484 5.73516ZM3.1875 6.75C3.49816 6.75 3.75 6.49816 3.75 6.1875C3.75 5.87684 3.49816 5.625 3.1875 5.625C2.87684 5.625 2.625 5.87684 2.625 6.1875C2.625 6.49816 2.87684 6.75 3.1875 6.75ZM5.8125 9.375C6.12316 9.375 6.375 9.12316 6.375 8.8125C6.375 8.50184 6.12316 8.25 5.8125 8.25C5.50184 8.25 5.25 8.50184 5.25 8.8125C5.25 9.12316 5.50184 9.375 5.8125 9.375Z"/>
</clipPath>
<g clip-path="url(#ClipPath)">
<path d="M12 0L12 12L0 12L0 0L12 0Z" fill="url(#LinearGradient)" fill-rule="nonzero" opacity="1" stroke="none" vectornator:layerName="Rectangle 1"/>
</g>
</g>
</svg>
