<?xml version="1.0" encoding="UTF-8" standalone="no"?>
<!DOCTYPE svg PUBLIC "-//W3C//DTD SVG 1.1//EN" "http://www.w3.org/Graphics/SVG/1.1/DTD/svg11.dtd">
<!-- Created with Vectornator (http://vectornator.io/) -->
<svg height="12.0pt" stroke-miterlimit="10" style="fill-rule:nonzero;clip-rule:evenodd;stroke-linecap:round;stroke-linejoin:round;" version="1.1" viewBox="0 0 12 12" width="12.0pt" xml:space="preserve" xmlns="http://www.w3.org/2000/svg" xmlns:vectornator="http://vectornator.io" xmlns:xlink="http://www.w3.org/1999/xlink">
<defs>
<linearGradient gradientTransform="matrix(7.34788e-16 12 -12 7.34788e-16 6 0)" gradientUnits="userSpaceOnUse" id="LinearGradient" x1="0" x2="1" y1="0" y2="0">
<stop offset="0" stop-color="#f29040"/>
<stop offset="0.7482" stop-color="#ee693c"/>
<stop offset="1" stop-color="#cd3a27"/>
</linearGradient>
</defs>
<g id="Untitled" vectornator:layerName="Untitled">
<clipPath clip-rule="nonzero" id="ClipPath">
<path d="M0 6C0 2.68629 2.68629 8.88178e-16 6 0C9.31371 0 12 2.68629 12 6C12 9.31371 9.31371 12 6 12C2.68629 12 8.88178e-16 9.31371 0 6ZM7.5 8.25C7.5 7.61953 7.11328 7.08047 6.5625 6.86016L6.5625 2.0625C6.5625 1.75078 6.31172 1.5 6 1.5C5.68828 1.5 5.4375 1.75078 5.4375 2.0625L5.4375 6.86016C4.88672 7.08281 4.5 7.62187 4.5 8.25C4.5 9.07734 5.17266 9.75 6 9.75C6.82734 9.75 7.5 9.07734 7.5 8.25ZM3.375 4.125C3.78921 4.125 4.125 3.78921 4.125 3.375C4.125 2.96079 3.78921 2.625 3.375 2.625C2.96079 2.625 2.625 2.96079 2.625 3.375C2.625 3.78921 2.96079 4.125 3.375 4.125ZM3 6C3 5.58579 2.66421 5.25 2.25 5.25C1.83579 5.25 1.5 5.58579 1.5 6C1.5 6.41421 1.83579 6.75 2.25 6.75C2.66421 6.75 3 6.41421 3 6ZM9.75 6.75C10.1642 6.75 10.5 6.41421 10.5 6C10.5 5.58579 10.1642 5.25 9.75 5.25C9.33579 5.25 9 5.58579 9 6C9 6.41421 9.33579 6.75 9.75 6.75ZM9.375 3.375C9.375 2.96079 9.03921 2.625 8.625 2.625C8.21079 2.625 7.875 2.96079 7.875 3.375C7.875 3.78921 8.21079 4.125 8.625 4.125C9.03921 4.125 9.375 3.78921 9.375 3.375Z"/>
</clipPath>
<g clip-path="url(#ClipPath)">
<path d="M12 0L12 12L0 12L0 0L12 0Z" fill="url(#LinearGradient)" fill-rule="nonzero" opacity="1" stroke="none" vectornator:layerName="Rectangle 1"/>
</g>
</g>
</svg>
