<?xml version="1.0" encoding="UTF-8" standalone="no"?>
<!DOCTYPE svg PUBLIC "-//W3C//DTD SVG 1.1//EN" "http://www.w3.org/Graphics/SVG/1.1/DTD/svg11.dtd">
<!-- Created with Vectornator (http://vectornator.io/) -->
<svg height="10.5pt" stroke-miterlimit="10" style="fill-rule:nonzero;clip-rule:evenodd;stroke-linecap:round;stroke-linejoin:round;" version="1.1" viewBox="0 0 13.5012 10.5" width="13.501171874999727pt" xml:space="preserve" xmlns="http://www.w3.org/2000/svg" xmlns:vectornator="http://vectornator.io" xmlns:xlink="http://www.w3.org/1999/xlink">
<defs>
<linearGradient gradientTransform="matrix(6.4294e-16 10.5 -13.5012 8.26708e-16 6.75059 0)" gradientUnits="userSpaceOnUse" id="LinearGradient" x1="0" x2="1" y1="0" y2="0">
<stop offset="0" stop-color="#f29040"/>
<stop offset="0.7482" stop-color="#ee693c"/>
<stop offset="1" stop-color="#cd3a27"/>
</linearGradient>
</defs>
<clipPath id="ArtboardFrame">
<rect height="10.5" width="13.5012" x="0" y="0"/>
</clipPath>
<g clip-path="url(#ArtboardFrame)" id="Untitled" vectornator:layerName="Untitled">
<clipPath clip-rule="nonzero" id="ClipPath">
<path d="M6.74941 0C4.85566 0 3.33926 0.8625 2.23535 1.88906C1.13848 2.90625 0.404883 4.125 0.0580078 4.96172C-0.0193359 5.14687-0.0193359 5.35312 0.0580078 5.53828C0.404883 6.375 1.13848 7.59375 2.23535 8.61094C3.33926 9.6375 4.85566 10.5 6.74941 10.5C8.64316 10.5 10.1596 9.6375 11.2635 8.61094C12.3604 7.59141 13.0939 6.375 13.4432 5.53828C13.5205 5.35312 13.5205 5.14687 13.4432 4.96172C13.0939 4.125 12.3604 2.90625 11.2635 1.88906C10.1596 0.8625 8.64316 0 6.74941 0ZM3.37441 5.25C3.37441 3.38604 4.88545 1.875 6.74941 1.875C8.61338 1.875 10.1244 3.38604 10.1244 5.25C10.1244 7.11396 8.61338 8.625 6.74941 8.625C4.88545 8.625 3.37441 7.11396 3.37441 5.25ZM6.74941 3.75C6.74941 4.57734 6.07676 5.25 5.24941 5.25C5.08301 5.25 4.92363 5.22188 4.77363 5.17266C4.64473 5.13047 4.49473 5.21016 4.49941 5.34609C4.50645 5.50781 4.52988 5.66953 4.57441 5.83125C4.89551 7.03125 6.13066 7.74375 7.33066 7.42266C8.53066 7.10156 9.24316 5.86641 8.92207 4.66641C8.66191 3.69375 7.80176 3.03984 6.84551 3C6.70957 2.99531 6.62988 3.14297 6.67207 3.27422C6.72129 3.42422 6.74941 3.58359 6.74941 3.75Z"/>
</clipPath>
<g clip-path="url(#ClipPath)">
<path d="M13.5012 0L13.5012 10.5L0 10.5L0 0L13.5012 0Z" fill="url(#LinearGradient)" fill-rule="nonzero" opacity="1" stroke="none" vectornator:layerName="Rectangle 1"/>
</g>
</g>
</svg>
