<?xml version="1.0" encoding="UTF-8" standalone="no"?>
<!DOCTYPE svg PUBLIC "-//W3C//DTD SVG 1.1//EN" "http://www.w3.org/Graphics/SVG/1.1/DTD/svg11.dtd">
<!-- Created with Vectornator (http://vectornator.io/) -->
<svg height="12.0pt" stroke-miterlimit="10" style="fill-rule:nonzero;clip-rule:evenodd;stroke-linecap:round;stroke-linejoin:round;" version="1.1" viewBox="0 0 12 12" width="12.0pt" xml:space="preserve" xmlns="http://www.w3.org/2000/svg" xmlns:vectornator="http://vectornator.io" xmlns:xlink="http://www.w3.org/1999/xlink">
<defs>
<linearGradient gradientTransform="matrix(7.34788e-16 12 -12 7.34788e-16 6 0)" gradientUnits="userSpaceOnUse" id="LinearGradient" x1="0" x2="1" y1="0" y2="0">
<stop offset="0" stop-color="#f29040"/>
<stop offset="0.7482" stop-color="#ee693c"/>
<stop offset="1" stop-color="#cd3a27"/>
</linearGradient>
</defs>
<g id="Untitled" vectornator:layerName="Untitled">
<clipPath clip-rule="nonzero" id="ClipPath">
<path d="M6.75 0.75C6.75 1.16484 7.08516 1.5 7.5 1.5L8.25 1.5C8.66484 1.5 9 1.83516 9 2.25C9 2.66484 8.66484 3 8.25 3L0.75 3C0.335156 3 0 3.33516 0 3.75C0 4.16484 0.335156 4.5 0.75 4.5L8.25 4.5C9.49219 4.5 10.5 3.49219 10.5 2.25C10.5 1.00781 9.49219 0 8.25 0L7.5 0C7.08516 0 6.75 0.335156 6.75 0.75ZM8.25 9C8.25 9.41484 8.58516 9.75 9 9.75L9.75 9.75C10.9922 9.75 12 8.74219 12 7.5C12 6.25781 10.9922 5.25 9.75 5.25L0.75 5.25C0.335156 5.25 0 5.58516 0 6C0 6.41484 0.335156 6.75 0.75 6.75L9.75 6.75C10.1648 6.75 10.5 7.08516 10.5 7.5C10.5 7.91484 10.1648 8.25 9.75 8.25L9 8.25C8.58516 8.25 8.25 8.58516 8.25 9ZM3 12L3.75 12C4.99219 12 6 10.9922 6 9.75C6 8.50781 4.99219 7.5 3.75 7.5L0.75 7.5C0.335156 7.5 0 7.83516 0 8.25C0 8.66484 0.335156 9 0.75 9L3.75 9C4.16484 9 4.5 9.33516 4.5 9.75C4.5 10.1648 4.16484 10.5 3.75 10.5L3 10.5C2.58516 10.5 2.25 10.8352 2.25 11.25C2.25 11.6648 2.58516 12 3 12Z"/>
</clipPath>
<g clip-path="url(#ClipPath)">
<path d="M12 0L12 12L0 12L0 0L12 0Z" fill="url(#LinearGradient)" fill-rule="nonzero" opacity="1" stroke="none" vectornator:layerName="Rectangle 1"/>
</g>
</g>
</svg>
